<mxfile host="app.diagrams.net" modified="2021-05-11T12:01:28.841Z" agent="5.0 (X11; Linux x86_64) AppleWebKit/537.36 (KHTML, like Gecko) Chrome/90.0.4430.85 Safari/537.36" etag="PJpYHXRYHTRPIsYPoera" version="14.6.11" type="github">
  <diagram id="C5RBs43oDa-KdzZeNtuy" name="Page-1">
    <mxGraphModel dx="2310" dy="799" grid="1" gridSize="10" guides="1" tooltips="1" connect="1" arrows="1" fold="1" page="1" pageScale="1" pageWidth="827" pageHeight="1169" math="0" shadow="0">
      <root>
        <mxCell id="WIyWlLk6GJQsqaUBKTNV-0" />
        <mxCell id="WIyWlLk6GJQsqaUBKTNV-1" parent="WIyWlLk6GJQsqaUBKTNV-0" />
        <mxCell id="0SHu6hE-PkKvcGbJ-4ND-0" value="Observer" style="html=1;" vertex="1" parent="WIyWlLk6GJQsqaUBKTNV-1">
          <mxGeometry x="510" y="120" width="110" height="50" as="geometry" />
        </mxCell>
        <mxCell id="0SHu6hE-PkKvcGbJ-4ND-1" value="Object" style="swimlane;fontStyle=1;align=center;verticalAlign=top;childLayout=stackLayout;horizontal=1;startSize=26;horizontalStack=0;resizeParent=1;resizeParentMax=0;resizeLast=0;collapsible=1;marginBottom=0;" vertex="1" parent="WIyWlLk6GJQsqaUBKTNV-1">
          <mxGeometry x="535" y="250" width="200" height="130" as="geometry" />
        </mxCell>
        <mxCell id="0SHu6hE-PkKvcGbJ-4ND-2" value="" style="line;strokeWidth=1;fillColor=none;align=left;verticalAlign=middle;spacingTop=-1;spacingLeft=3;spacingRight=3;rotatable=0;labelPosition=right;points=[];portConstraint=eastwest;" vertex="1" parent="0SHu6hE-PkKvcGbJ-4ND-1">
          <mxGeometry y="26" width="200" height="8" as="geometry" />
        </mxCell>
        <mxCell id="0SHu6hE-PkKvcGbJ-4ND-3" value="+ __init_()&#xa;+ folow(observer, ObderverBase)&#xa;+ unfolow(observer, ObserverBase)&#xa;+ set_date(data)&#xa;+ get_data()&#xa;+ notify(data)" style="text;strokeColor=none;fillColor=none;align=left;verticalAlign=top;spacingLeft=4;spacingRight=4;overflow=hidden;rotatable=0;points=[[0,0.5],[1,0.5]];portConstraint=eastwest;" vertex="1" parent="0SHu6hE-PkKvcGbJ-4ND-1">
          <mxGeometry y="34" width="200" height="96" as="geometry" />
        </mxCell>
        <mxCell id="0SHu6hE-PkKvcGbJ-4ND-4" value="ObserverBase" style="swimlane;fontStyle=1;align=center;verticalAlign=top;childLayout=stackLayout;horizontal=1;startSize=26;horizontalStack=0;resizeParent=1;resizeParentMax=0;resizeLast=0;collapsible=1;marginBottom=0;" vertex="1" parent="WIyWlLk6GJQsqaUBKTNV-1">
          <mxGeometry x="555" y="486" width="160" height="60" as="geometry" />
        </mxCell>
        <mxCell id="0SHu6hE-PkKvcGbJ-4ND-5" value="" style="line;strokeWidth=1;fillColor=none;align=left;verticalAlign=middle;spacingTop=-1;spacingLeft=3;spacingRight=3;rotatable=0;labelPosition=right;points=[];portConstraint=eastwest;" vertex="1" parent="0SHu6hE-PkKvcGbJ-4ND-4">
          <mxGeometry y="26" width="160" height="8" as="geometry" />
        </mxCell>
        <mxCell id="0SHu6hE-PkKvcGbJ-4ND-6" value="+ update(data)" style="text;strokeColor=none;fillColor=none;align=left;verticalAlign=top;spacingLeft=4;spacingRight=4;overflow=hidden;rotatable=0;points=[[0,0.5],[1,0.5]];portConstraint=eastwest;" vertex="1" parent="0SHu6hE-PkKvcGbJ-4ND-4">
          <mxGeometry y="34" width="160" height="26" as="geometry" />
        </mxCell>
        <mxCell id="0SHu6hE-PkKvcGbJ-4ND-7" value="Observer" style="swimlane;fontStyle=1;align=center;verticalAlign=top;childLayout=stackLayout;horizontal=1;startSize=26;horizontalStack=0;resizeParent=1;resizeParentMax=0;resizeLast=0;collapsible=1;marginBottom=0;" vertex="1" parent="WIyWlLk6GJQsqaUBKTNV-1">
          <mxGeometry x="555" y="630" width="160" height="90" as="geometry" />
        </mxCell>
        <mxCell id="0SHu6hE-PkKvcGbJ-4ND-8" value="" style="line;strokeWidth=1;fillColor=none;align=left;verticalAlign=middle;spacingTop=-1;spacingLeft=3;spacingRight=3;rotatable=0;labelPosition=right;points=[];portConstraint=eastwest;" vertex="1" parent="0SHu6hE-PkKvcGbJ-4ND-7">
          <mxGeometry y="26" width="160" height="8" as="geometry" />
        </mxCell>
        <mxCell id="0SHu6hE-PkKvcGbJ-4ND-9" value="+ __init__(name)&#xa;+ update(data)" style="text;strokeColor=none;fillColor=none;align=left;verticalAlign=top;spacingLeft=4;spacingRight=4;overflow=hidden;rotatable=0;points=[[0,0.5],[1,0.5]];portConstraint=eastwest;" vertex="1" parent="0SHu6hE-PkKvcGbJ-4ND-7">
          <mxGeometry y="34" width="160" height="56" as="geometry" />
        </mxCell>
        <mxCell id="0SHu6hE-PkKvcGbJ-4ND-10" value="Extends" style="endArrow=block;endSize=16;endFill=0;html=1;rounded=0;edgeStyle=orthogonalEdgeStyle;entryX=0.475;entryY=1.022;entryDx=0;entryDy=0;entryPerimeter=0;exitX=0.5;exitY=0;exitDx=0;exitDy=0;" edge="1" parent="WIyWlLk6GJQsqaUBKTNV-1" source="0SHu6hE-PkKvcGbJ-4ND-7" target="0SHu6hE-PkKvcGbJ-4ND-6">
          <mxGeometry width="160" relative="1" as="geometry">
            <mxPoint x="375" y="610" as="sourcePoint" />
            <mxPoint x="535" y="610" as="targetPoint" />
          </mxGeometry>
        </mxCell>
        <mxCell id="0SHu6hE-PkKvcGbJ-4ND-12" value="" style="endArrow=open;endFill=1;endSize=12;html=1;rounded=0;edgeStyle=orthogonalEdgeStyle;exitX=0.5;exitY=0;exitDx=0;exitDy=0;" edge="1" parent="WIyWlLk6GJQsqaUBKTNV-1" target="0SHu6hE-PkKvcGbJ-4ND-3" source="0SHu6hE-PkKvcGbJ-4ND-14">
          <mxGeometry width="160" relative="1" as="geometry">
            <mxPoint x="400" y="460" as="sourcePoint" />
            <mxPoint x="235" y="490" as="targetPoint" />
          </mxGeometry>
        </mxCell>
        <mxCell id="0SHu6hE-PkKvcGbJ-4ND-13" value="" style="endArrow=block;dashed=1;endFill=0;endSize=12;html=1;rounded=0;edgeStyle=orthogonalEdgeStyle;entryX=0;entryY=0.5;entryDx=0;entryDy=0;exitX=0.5;exitY=1;exitDx=0;exitDy=0;" edge="1" parent="WIyWlLk6GJQsqaUBKTNV-1" target="0SHu6hE-PkKvcGbJ-4ND-9" source="0SHu6hE-PkKvcGbJ-4ND-14">
          <mxGeometry width="160" relative="1" as="geometry">
            <mxPoint x="400" y="500" as="sourcePoint" />
            <mxPoint x="235" y="490" as="targetPoint" />
          </mxGeometry>
        </mxCell>
        <mxCell id="0SHu6hE-PkKvcGbJ-4ND-14" value="User" style="html=1;" vertex="1" parent="WIyWlLk6GJQsqaUBKTNV-1">
          <mxGeometry x="340" y="462" width="110" height="50" as="geometry" />
        </mxCell>
        <mxCell id="0SHu6hE-PkKvcGbJ-4ND-16" value="1..*" style="endArrow=open;html=1;endSize=12;startArrow=diamondThin;startSize=14;startFill=0;edgeStyle=orthogonalEdgeStyle;align=left;verticalAlign=bottom;entryX=0.5;entryY=0;entryDx=0;entryDy=0;exitX=0.5;exitY=1;exitDx=0;exitDy=0;exitPerimeter=0;" edge="1" parent="WIyWlLk6GJQsqaUBKTNV-1" source="0SHu6hE-PkKvcGbJ-4ND-3" target="0SHu6hE-PkKvcGbJ-4ND-4">
          <mxGeometry x="-0.434" relative="1" as="geometry">
            <mxPoint x="460" y="420" as="sourcePoint" />
            <mxPoint x="620" y="420" as="targetPoint" />
            <mxPoint as="offset" />
          </mxGeometry>
        </mxCell>
        <mxCell id="0SHu6hE-PkKvcGbJ-4ND-17" value="Observer" style="shape=umlFrame;whiteSpace=wrap;html=1;strokeWidth=3;" vertex="1" parent="WIyWlLk6GJQsqaUBKTNV-1">
          <mxGeometry x="330" y="50" width="450" height="700" as="geometry" />
        </mxCell>
        <mxCell id="0SHu6hE-PkKvcGbJ-4ND-19" value="Light" style="swimlane;fontStyle=1;align=center;verticalAlign=top;childLayout=stackLayout;horizontal=1;startSize=26;horizontalStack=0;resizeParent=1;resizeParentMax=0;resizeLast=0;collapsible=1;marginBottom=0;" vertex="1" parent="WIyWlLk6GJQsqaUBKTNV-1">
          <mxGeometry x="1120" y="405" width="160" height="80" as="geometry" />
        </mxCell>
        <mxCell id="0SHu6hE-PkKvcGbJ-4ND-20" value="" style="line;strokeWidth=1;fillColor=none;align=left;verticalAlign=middle;spacingTop=-1;spacingLeft=3;spacingRight=3;rotatable=0;labelPosition=right;points=[];portConstraint=eastwest;" vertex="1" parent="0SHu6hE-PkKvcGbJ-4ND-19">
          <mxGeometry y="26" width="160" height="8" as="geometry" />
        </mxCell>
        <mxCell id="0SHu6hE-PkKvcGbJ-4ND-21" value="+ turn_on()&#xa;+ turn_off()" style="text;strokeColor=none;fillColor=none;align=left;verticalAlign=top;spacingLeft=4;spacingRight=4;overflow=hidden;rotatable=0;points=[[0,0.5],[1,0.5]];portConstraint=eastwest;" vertex="1" parent="0SHu6hE-PkKvcGbJ-4ND-19">
          <mxGeometry y="34" width="160" height="46" as="geometry" />
        </mxCell>
        <mxCell id="0SHu6hE-PkKvcGbJ-4ND-22" value="ActionBase" style="swimlane;fontStyle=1;align=center;verticalAlign=top;childLayout=stackLayout;horizontal=1;startSize=26;horizontalStack=0;resizeParent=1;resizeParentMax=0;resizeLast=0;collapsible=1;marginBottom=0;" vertex="1" parent="WIyWlLk6GJQsqaUBKTNV-1">
          <mxGeometry x="1395" y="390" width="160" height="60" as="geometry" />
        </mxCell>
        <mxCell id="0SHu6hE-PkKvcGbJ-4ND-23" value="" style="line;strokeWidth=1;fillColor=none;align=left;verticalAlign=middle;spacingTop=-1;spacingLeft=3;spacingRight=3;rotatable=0;labelPosition=right;points=[];portConstraint=eastwest;" vertex="1" parent="0SHu6hE-PkKvcGbJ-4ND-22">
          <mxGeometry y="26" width="160" height="8" as="geometry" />
        </mxCell>
        <mxCell id="0SHu6hE-PkKvcGbJ-4ND-24" value="+ action()" style="text;strokeColor=none;fillColor=none;align=left;verticalAlign=top;spacingLeft=4;spacingRight=4;overflow=hidden;rotatable=0;points=[[0,0.5],[1,0.5]];portConstraint=eastwest;" vertex="1" parent="0SHu6hE-PkKvcGbJ-4ND-22">
          <mxGeometry y="34" width="160" height="26" as="geometry" />
        </mxCell>
        <mxCell id="0SHu6hE-PkKvcGbJ-4ND-25" value="LightOn" style="swimlane;fontStyle=1;align=center;verticalAlign=top;childLayout=stackLayout;horizontal=1;startSize=26;horizontalStack=0;resizeParent=1;resizeParentMax=0;resizeLast=0;collapsible=1;marginBottom=0;" vertex="1" parent="WIyWlLk6GJQsqaUBKTNV-1">
          <mxGeometry x="1325" y="645" width="160" height="60" as="geometry" />
        </mxCell>
        <mxCell id="0SHu6hE-PkKvcGbJ-4ND-26" value="" style="line;strokeWidth=1;fillColor=none;align=left;verticalAlign=middle;spacingTop=-1;spacingLeft=3;spacingRight=3;rotatable=0;labelPosition=right;points=[];portConstraint=eastwest;" vertex="1" parent="0SHu6hE-PkKvcGbJ-4ND-25">
          <mxGeometry y="26" width="160" height="8" as="geometry" />
        </mxCell>
        <mxCell id="0SHu6hE-PkKvcGbJ-4ND-27" value="+ action()" style="text;strokeColor=none;fillColor=none;align=left;verticalAlign=top;spacingLeft=4;spacingRight=4;overflow=hidden;rotatable=0;points=[[0,0.5],[1,0.5]];portConstraint=eastwest;" vertex="1" parent="0SHu6hE-PkKvcGbJ-4ND-25">
          <mxGeometry y="34" width="160" height="26" as="geometry" />
        </mxCell>
        <mxCell id="0SHu6hE-PkKvcGbJ-4ND-28" value="LightOff" style="swimlane;fontStyle=1;align=center;verticalAlign=top;childLayout=stackLayout;horizontal=1;startSize=26;horizontalStack=0;resizeParent=1;resizeParentMax=0;resizeLast=0;collapsible=1;marginBottom=0;" vertex="1" parent="WIyWlLk6GJQsqaUBKTNV-1">
          <mxGeometry x="1555" y="645" width="160" height="60" as="geometry" />
        </mxCell>
        <mxCell id="0SHu6hE-PkKvcGbJ-4ND-29" value="" style="line;strokeWidth=1;fillColor=none;align=left;verticalAlign=middle;spacingTop=-1;spacingLeft=3;spacingRight=3;rotatable=0;labelPosition=right;points=[];portConstraint=eastwest;" vertex="1" parent="0SHu6hE-PkKvcGbJ-4ND-28">
          <mxGeometry y="26" width="160" height="8" as="geometry" />
        </mxCell>
        <mxCell id="0SHu6hE-PkKvcGbJ-4ND-30" value="+ action()" style="text;strokeColor=none;fillColor=none;align=left;verticalAlign=top;spacingLeft=4;spacingRight=4;overflow=hidden;rotatable=0;points=[[0,0.5],[1,0.5]];portConstraint=eastwest;" vertex="1" parent="0SHu6hE-PkKvcGbJ-4ND-28">
          <mxGeometry y="34" width="160" height="26" as="geometry" />
        </mxCell>
        <mxCell id="0SHu6hE-PkKvcGbJ-4ND-31" value="LightActionBase" style="swimlane;fontStyle=1;align=center;verticalAlign=top;childLayout=stackLayout;horizontal=1;startSize=26;horizontalStack=0;resizeParent=1;resizeParentMax=0;resizeLast=0;collapsible=1;marginBottom=0;" vertex="1" parent="WIyWlLk6GJQsqaUBKTNV-1">
          <mxGeometry x="1395" y="515" width="160" height="60" as="geometry" />
        </mxCell>
        <mxCell id="0SHu6hE-PkKvcGbJ-4ND-32" value="" style="line;strokeWidth=1;fillColor=none;align=left;verticalAlign=middle;spacingTop=-1;spacingLeft=3;spacingRight=3;rotatable=0;labelPosition=right;points=[];portConstraint=eastwest;" vertex="1" parent="0SHu6hE-PkKvcGbJ-4ND-31">
          <mxGeometry y="26" width="160" height="8" as="geometry" />
        </mxCell>
        <mxCell id="0SHu6hE-PkKvcGbJ-4ND-33" value="+ __init__()" style="text;strokeColor=none;fillColor=none;align=left;verticalAlign=top;spacingLeft=4;spacingRight=4;overflow=hidden;rotatable=0;points=[[0,0.5],[1,0.5]];portConstraint=eastwest;" vertex="1" parent="0SHu6hE-PkKvcGbJ-4ND-31">
          <mxGeometry y="34" width="160" height="26" as="geometry" />
        </mxCell>
        <mxCell id="0SHu6hE-PkKvcGbJ-4ND-34" value="Switch" style="swimlane;fontStyle=1;align=center;verticalAlign=top;childLayout=stackLayout;horizontal=1;startSize=26;horizontalStack=0;resizeParent=1;resizeParentMax=0;resizeLast=0;collapsible=1;marginBottom=0;" vertex="1" parent="WIyWlLk6GJQsqaUBKTNV-1">
          <mxGeometry x="1390" y="207" width="160" height="90" as="geometry" />
        </mxCell>
        <mxCell id="0SHu6hE-PkKvcGbJ-4ND-35" value="" style="line;strokeWidth=1;fillColor=none;align=left;verticalAlign=middle;spacingTop=-1;spacingLeft=3;spacingRight=3;rotatable=0;labelPosition=right;points=[];portConstraint=eastwest;" vertex="1" parent="0SHu6hE-PkKvcGbJ-4ND-34">
          <mxGeometry y="26" width="160" height="8" as="geometry" />
        </mxCell>
        <mxCell id="0SHu6hE-PkKvcGbJ-4ND-36" value="+ __init__(on_light, off_light)&#xa;+ on_lamp()&#xa;+ off_light()" style="text;strokeColor=none;fillColor=none;align=left;verticalAlign=top;spacingLeft=4;spacingRight=4;overflow=hidden;rotatable=0;points=[[0,0.5],[1,0.5]];portConstraint=eastwest;" vertex="1" parent="0SHu6hE-PkKvcGbJ-4ND-34">
          <mxGeometry y="34" width="160" height="56" as="geometry" />
        </mxCell>
        <mxCell id="0SHu6hE-PkKvcGbJ-4ND-37" value="User" style="html=1;" vertex="1" parent="WIyWlLk6GJQsqaUBKTNV-1">
          <mxGeometry x="1145" y="247" width="110" height="50" as="geometry" />
        </mxCell>
        <mxCell id="0SHu6hE-PkKvcGbJ-4ND-42" value="" style="endArrow=open;endFill=1;endSize=12;html=1;rounded=0;edgeStyle=orthogonalEdgeStyle;" edge="1" parent="WIyWlLk6GJQsqaUBKTNV-1" source="0SHu6hE-PkKvcGbJ-4ND-37" target="0SHu6hE-PkKvcGbJ-4ND-36">
          <mxGeometry width="160" relative="1" as="geometry">
            <mxPoint x="1255" y="275" as="sourcePoint" />
            <mxPoint x="1395" y="275" as="targetPoint" />
          </mxGeometry>
        </mxCell>
        <mxCell id="0SHu6hE-PkKvcGbJ-4ND-46" value="" style="endArrow=open;html=1;endSize=12;startArrow=diamondThin;startSize=14;startFill=0;edgeStyle=orthogonalEdgeStyle;align=left;verticalAlign=bottom;entryX=0.5;entryY=0;entryDx=0;entryDy=0;exitX=0.526;exitY=0.982;exitDx=0;exitDy=0;exitPerimeter=0;" edge="1" parent="WIyWlLk6GJQsqaUBKTNV-1" source="0SHu6hE-PkKvcGbJ-4ND-36" target="0SHu6hE-PkKvcGbJ-4ND-22">
          <mxGeometry x="-1" y="3" relative="1" as="geometry">
            <mxPoint x="1420" y="330" as="sourcePoint" />
            <mxPoint x="1580" y="330" as="targetPoint" />
            <Array as="points" />
          </mxGeometry>
        </mxCell>
        <mxCell id="0SHu6hE-PkKvcGbJ-4ND-47" value="Use" style="endArrow=open;endSize=12;dashed=1;html=1;exitX=1;exitY=0.5;exitDx=0;exitDy=0;entryX=0;entryY=0.5;entryDx=0;entryDy=0;" edge="1" parent="WIyWlLk6GJQsqaUBKTNV-1" source="0SHu6hE-PkKvcGbJ-4ND-37" target="0SHu6hE-PkKvcGbJ-4ND-25">
          <mxGeometry width="160" relative="1" as="geometry">
            <mxPoint x="1290" y="510" as="sourcePoint" />
            <mxPoint x="1450" y="510" as="targetPoint" />
            <Array as="points">
              <mxPoint x="1300" y="272" />
              <mxPoint x="1300" y="675" />
            </Array>
          </mxGeometry>
        </mxCell>
        <mxCell id="0SHu6hE-PkKvcGbJ-4ND-48" value="Use" style="endArrow=open;endSize=12;dashed=1;html=1;exitX=1;exitY=0.5;exitDx=0;exitDy=0;entryX=0.531;entryY=0.808;entryDx=0;entryDy=0;entryPerimeter=0;" edge="1" parent="WIyWlLk6GJQsqaUBKTNV-1" source="0SHu6hE-PkKvcGbJ-4ND-37" target="0SHu6hE-PkKvcGbJ-4ND-30">
          <mxGeometry width="160" relative="1" as="geometry">
            <mxPoint x="1290" y="510" as="sourcePoint" />
            <mxPoint x="1450" y="510" as="targetPoint" />
            <Array as="points">
              <mxPoint x="1290" y="272" />
              <mxPoint x="1290" y="750" />
              <mxPoint x="1640" y="750" />
            </Array>
          </mxGeometry>
        </mxCell>
        <mxCell id="0SHu6hE-PkKvcGbJ-4ND-49" value="Create" style="endArrow=open;endSize=12;dashed=1;html=1;exitX=0.5;exitY=1;exitDx=0;exitDy=0;" edge="1" parent="WIyWlLk6GJQsqaUBKTNV-1" source="0SHu6hE-PkKvcGbJ-4ND-37" target="0SHu6hE-PkKvcGbJ-4ND-19">
          <mxGeometry width="160" relative="1" as="geometry">
            <mxPoint x="1290" y="510" as="sourcePoint" />
            <mxPoint x="1450" y="510" as="targetPoint" />
          </mxGeometry>
        </mxCell>
        <mxCell id="0SHu6hE-PkKvcGbJ-4ND-50" value="Extends" style="endArrow=block;endSize=16;endFill=0;html=1;exitX=0.5;exitY=0;exitDx=0;exitDy=0;" edge="1" parent="WIyWlLk6GJQsqaUBKTNV-1" source="0SHu6hE-PkKvcGbJ-4ND-25" target="0SHu6hE-PkKvcGbJ-4ND-33">
          <mxGeometry width="160" relative="1" as="geometry">
            <mxPoint x="1290" y="510" as="sourcePoint" />
            <mxPoint x="1450" y="510" as="targetPoint" />
            <Array as="points">
              <mxPoint x="1405" y="620" />
              <mxPoint x="1477" y="620" />
            </Array>
          </mxGeometry>
        </mxCell>
        <mxCell id="0SHu6hE-PkKvcGbJ-4ND-51" value="Extends" style="endArrow=block;endSize=16;endFill=0;html=1;exitX=0.25;exitY=0;exitDx=0;exitDy=0;" edge="1" parent="WIyWlLk6GJQsqaUBKTNV-1" source="0SHu6hE-PkKvcGbJ-4ND-28" target="0SHu6hE-PkKvcGbJ-4ND-33">
          <mxGeometry width="160" relative="1" as="geometry">
            <mxPoint x="1415" y="655" as="sourcePoint" />
            <mxPoint x="1491.56" y="586.144" as="targetPoint" />
            <Array as="points">
              <mxPoint x="1595" y="620" />
              <mxPoint x="1478" y="620" />
            </Array>
          </mxGeometry>
        </mxCell>
        <mxCell id="0SHu6hE-PkKvcGbJ-4ND-53" value="Extends" style="endArrow=block;endSize=16;endFill=0;html=1;entryX=0.522;entryY=1.037;entryDx=0;entryDy=0;entryPerimeter=0;exitX=0.52;exitY=0.01;exitDx=0;exitDy=0;exitPerimeter=0;" edge="1" parent="WIyWlLk6GJQsqaUBKTNV-1" source="0SHu6hE-PkKvcGbJ-4ND-31" target="0SHu6hE-PkKvcGbJ-4ND-24">
          <mxGeometry width="160" relative="1" as="geometry">
            <mxPoint x="1400" y="550" as="sourcePoint" />
            <mxPoint x="1560" y="550" as="targetPoint" />
          </mxGeometry>
        </mxCell>
        <mxCell id="0SHu6hE-PkKvcGbJ-4ND-54" value="Action" style="html=1;strokeWidth=3;" vertex="1" parent="WIyWlLk6GJQsqaUBKTNV-1">
          <mxGeometry x="1285" y="80" width="110" height="50" as="geometry" />
        </mxCell>
        <mxCell id="0SHu6hE-PkKvcGbJ-4ND-55" value="Action" style="shape=umlFrame;whiteSpace=wrap;html=1;strokeWidth=3;" vertex="1" parent="WIyWlLk6GJQsqaUBKTNV-1">
          <mxGeometry x="1100" y="50" width="640" height="720" as="geometry" />
        </mxCell>
        <mxCell id="0SHu6hE-PkKvcGbJ-4ND-56" value="IteratorBase" style="swimlane;fontStyle=1;align=center;verticalAlign=top;childLayout=stackLayout;horizontal=1;startSize=26;horizontalStack=0;resizeParent=1;resizeParentMax=0;resizeLast=0;collapsible=1;marginBottom=0;" vertex="1" parent="WIyWlLk6GJQsqaUBKTNV-1">
          <mxGeometry x="2100" y="200" width="150" height="150" as="geometry" />
        </mxCell>
        <mxCell id="0SHu6hE-PkKvcGbJ-4ND-57" value="" style="line;strokeWidth=1;fillColor=none;align=left;verticalAlign=middle;spacingTop=-1;spacingLeft=3;spacingRight=3;rotatable=0;labelPosition=right;points=[];portConstraint=eastwest;" vertex="1" parent="0SHu6hE-PkKvcGbJ-4ND-56">
          <mxGeometry y="26" width="150" height="8" as="geometry" />
        </mxCell>
        <mxCell id="0SHu6hE-PkKvcGbJ-4ND-58" value="+ first()&#xa;+ last()&#xa;+next()&#xa;+previous()&#xa;+ check_elem(index)&#xa;+ get_elem(index)&#xa;+ current_elem()" style="text;strokeColor=none;fillColor=none;align=left;verticalAlign=top;spacingLeft=4;spacingRight=4;overflow=hidden;rotatable=0;points=[[0,0.5],[1,0.5]];portConstraint=eastwest;" vertex="1" parent="0SHu6hE-PkKvcGbJ-4ND-56">
          <mxGeometry y="34" width="150" height="116" as="geometry" />
        </mxCell>
        <mxCell id="0SHu6hE-PkKvcGbJ-4ND-59" value="IteratorBase" style="swimlane;fontStyle=1;align=center;verticalAlign=top;childLayout=stackLayout;horizontal=1;startSize=26;horizontalStack=0;resizeParent=1;resizeParentMax=0;resizeLast=0;collapsible=1;marginBottom=0;" vertex="1" parent="WIyWlLk6GJQsqaUBKTNV-1">
          <mxGeometry x="2100" y="460" width="150" height="170" as="geometry" />
        </mxCell>
        <mxCell id="0SHu6hE-PkKvcGbJ-4ND-60" value="" style="line;strokeWidth=1;fillColor=none;align=left;verticalAlign=middle;spacingTop=-1;spacingLeft=3;spacingRight=3;rotatable=0;labelPosition=right;points=[];portConstraint=eastwest;" vertex="1" parent="0SHu6hE-PkKvcGbJ-4ND-59">
          <mxGeometry y="26" width="150" height="8" as="geometry" />
        </mxCell>
        <mxCell id="0SHu6hE-PkKvcGbJ-4ND-61" value="+ __init__(_elements)&#xa;+ first()&#xa;+ last()&#xa;+next()&#xa;+previous()&#xa;+ check_elem(index)&#xa;+ get_elem(index)&#xa;+ current_elem()" style="text;strokeColor=none;fillColor=none;align=left;verticalAlign=top;spacingLeft=4;spacingRight=4;overflow=hidden;rotatable=0;points=[[0,0.5],[1,0.5]];portConstraint=eastwest;" vertex="1" parent="0SHu6hE-PkKvcGbJ-4ND-59">
          <mxGeometry y="34" width="150" height="136" as="geometry" />
        </mxCell>
        <mxCell id="0SHu6hE-PkKvcGbJ-4ND-62" value="Extends" style="endArrow=block;endSize=16;endFill=0;html=1;exitX=0.5;exitY=0;exitDx=0;exitDy=0;" edge="1" parent="WIyWlLk6GJQsqaUBKTNV-1" source="0SHu6hE-PkKvcGbJ-4ND-59" target="0SHu6hE-PkKvcGbJ-4ND-58">
          <mxGeometry width="160" relative="1" as="geometry">
            <mxPoint x="2000" y="580" as="sourcePoint" />
            <mxPoint x="2160" y="580" as="targetPoint" />
          </mxGeometry>
        </mxCell>
        <mxCell id="0SHu6hE-PkKvcGbJ-4ND-63" value="User" style="rounded=0;whiteSpace=wrap;html=1;" vertex="1" parent="WIyWlLk6GJQsqaUBKTNV-1">
          <mxGeometry x="2115" y="120" width="120" height="40" as="geometry" />
        </mxCell>
        <mxCell id="0SHu6hE-PkKvcGbJ-4ND-64" value="" style="endArrow=open;endFill=1;endSize=12;html=1;rounded=0;edgeStyle=orthogonalEdgeStyle;exitX=0.5;exitY=1;exitDx=0;exitDy=0;" edge="1" parent="WIyWlLk6GJQsqaUBKTNV-1" source="0SHu6hE-PkKvcGbJ-4ND-63" target="0SHu6hE-PkKvcGbJ-4ND-56">
          <mxGeometry width="160" relative="1" as="geometry">
            <mxPoint x="1980" y="510" as="sourcePoint" />
            <mxPoint x="2140" y="510" as="targetPoint" />
          </mxGeometry>
        </mxCell>
        <mxCell id="0SHu6hE-PkKvcGbJ-4ND-65" value="Iterator" style="shape=umlFrame;whiteSpace=wrap;html=1;strokeWidth=3;" vertex="1" parent="WIyWlLk6GJQsqaUBKTNV-1">
          <mxGeometry x="2002.5" y="50" width="345" height="720" as="geometry" />
        </mxCell>
        <mxCell id="0SHu6hE-PkKvcGbJ-4ND-78" value="TraficLight" style="swimlane;fontStyle=1;align=center;verticalAlign=top;childLayout=stackLayout;horizontal=1;startSize=26;horizontalStack=0;resizeParent=1;resizeParentMax=0;resizeLast=0;collapsible=1;marginBottom=0;" vertex="1" parent="WIyWlLk6GJQsqaUBKTNV-1">
          <mxGeometry x="-300" y="270" width="160" height="104" as="geometry" />
        </mxCell>
        <mxCell id="0SHu6hE-PkKvcGbJ-4ND-80" value="" style="line;strokeWidth=1;fillColor=none;align=left;verticalAlign=middle;spacingTop=-1;spacingLeft=3;spacingRight=3;rotatable=0;labelPosition=right;points=[];portConstraint=eastwest;" vertex="1" parent="0SHu6hE-PkKvcGbJ-4ND-78">
          <mxGeometry y="26" width="160" height="8" as="geometry" />
        </mxCell>
        <mxCell id="0SHu6hE-PkKvcGbJ-4ND-81" value="+ __init__()&#xa;+ change(method)&#xa;+ get_state()" style="text;strokeColor=none;fillColor=none;align=left;verticalAlign=top;spacingLeft=4;spacingRight=4;overflow=hidden;rotatable=0;points=[[0,0.5],[1,0.5]];portConstraint=eastwest;" vertex="1" parent="0SHu6hE-PkKvcGbJ-4ND-78">
          <mxGeometry y="34" width="160" height="70" as="geometry" />
        </mxCell>
        <mxCell id="0SHu6hE-PkKvcGbJ-4ND-87" value="User" style="rounded=0;whiteSpace=wrap;html=1;" vertex="1" parent="WIyWlLk6GJQsqaUBKTNV-1">
          <mxGeometry x="-280" y="190" width="120" height="40" as="geometry" />
        </mxCell>
        <mxCell id="0SHu6hE-PkKvcGbJ-4ND-88" value="" style="endArrow=open;endFill=1;endSize=12;html=1;rounded=0;edgeStyle=orthogonalEdgeStyle;exitX=0.5;exitY=1;exitDx=0;exitDy=0;entryX=0.5;entryY=0;entryDx=0;entryDy=0;" edge="1" parent="WIyWlLk6GJQsqaUBKTNV-1" source="0SHu6hE-PkKvcGbJ-4ND-87" target="0SHu6hE-PkKvcGbJ-4ND-78">
          <mxGeometry width="160" relative="1" as="geometry">
            <mxPoint x="-340" y="360" as="sourcePoint" />
            <mxPoint x="-180" y="360" as="targetPoint" />
          </mxGeometry>
        </mxCell>
        <mxCell id="0SHu6hE-PkKvcGbJ-4ND-89" value="State" style="html=1;strokeWidth=3;" vertex="1" parent="WIyWlLk6GJQsqaUBKTNV-1">
          <mxGeometry x="-275" y="100" width="110" height="50" as="geometry" />
        </mxCell>
        <mxCell id="0SHu6hE-PkKvcGbJ-4ND-91" value="TraficLightState" style="swimlane;fontStyle=1;align=center;verticalAlign=top;childLayout=stackLayout;horizontal=1;startSize=26;horizontalStack=0;resizeParent=1;resizeParentMax=0;resizeLast=0;collapsible=1;marginBottom=0;strokeWidth=3;" vertex="1" parent="WIyWlLk6GJQsqaUBKTNV-1">
          <mxGeometry x="-300" y="436" width="160" height="110" as="geometry" />
        </mxCell>
        <mxCell id="0SHu6hE-PkKvcGbJ-4ND-92" value="+ name&#xa;+state" style="text;strokeColor=none;fillColor=none;align=left;verticalAlign=top;spacingLeft=4;spacingRight=4;overflow=hidden;rotatable=0;points=[[0,0.5],[1,0.5]];portConstraint=eastwest;" vertex="1" parent="0SHu6hE-PkKvcGbJ-4ND-91">
          <mxGeometry y="26" width="160" height="34" as="geometry" />
        </mxCell>
        <mxCell id="0SHu6hE-PkKvcGbJ-4ND-93" value="" style="line;strokeWidth=1;fillColor=none;align=left;verticalAlign=middle;spacingTop=-1;spacingLeft=3;spacingRight=3;rotatable=0;labelPosition=right;points=[];portConstraint=eastwest;" vertex="1" parent="0SHu6hE-PkKvcGbJ-4ND-91">
          <mxGeometry y="60" width="160" height="8" as="geometry" />
        </mxCell>
        <mxCell id="0SHu6hE-PkKvcGbJ-4ND-94" value="+ switch(action)&#xa;+ __str__()" style="text;strokeColor=none;fillColor=none;align=left;verticalAlign=top;spacingLeft=4;spacingRight=4;overflow=hidden;rotatable=0;points=[[0,0.5],[1,0.5]];portConstraint=eastwest;" vertex="1" parent="0SHu6hE-PkKvcGbJ-4ND-91">
          <mxGeometry y="68" width="160" height="42" as="geometry" />
        </mxCell>
        <mxCell id="0SHu6hE-PkKvcGbJ-4ND-95" value="TraficLightState" style="swimlane;fontStyle=1;align=center;verticalAlign=top;childLayout=stackLayout;horizontal=1;startSize=26;horizontalStack=0;resizeParent=1;resizeParentMax=0;resizeLast=0;collapsible=1;marginBottom=0;strokeWidth=3;" vertex="1" parent="WIyWlLk6GJQsqaUBKTNV-1">
          <mxGeometry x="-100" y="610" width="160" height="68" as="geometry" />
        </mxCell>
        <mxCell id="0SHu6hE-PkKvcGbJ-4ND-96" value="+ name&#xa;+state" style="text;strokeColor=none;fillColor=none;align=left;verticalAlign=top;spacingLeft=4;spacingRight=4;overflow=hidden;rotatable=0;points=[[0,0.5],[1,0.5]];portConstraint=eastwest;" vertex="1" parent="0SHu6hE-PkKvcGbJ-4ND-95">
          <mxGeometry y="26" width="160" height="34" as="geometry" />
        </mxCell>
        <mxCell id="0SHu6hE-PkKvcGbJ-4ND-97" value="" style="line;strokeWidth=1;fillColor=none;align=left;verticalAlign=middle;spacingTop=-1;spacingLeft=3;spacingRight=3;rotatable=0;labelPosition=right;points=[];portConstraint=eastwest;" vertex="1" parent="0SHu6hE-PkKvcGbJ-4ND-95">
          <mxGeometry y="60" width="160" height="8" as="geometry" />
        </mxCell>
        <mxCell id="0SHu6hE-PkKvcGbJ-4ND-99" value="TraficLightState" style="swimlane;fontStyle=1;align=center;verticalAlign=top;childLayout=stackLayout;horizontal=1;startSize=26;horizontalStack=0;resizeParent=1;resizeParentMax=0;resizeLast=0;collapsible=1;marginBottom=0;strokeWidth=3;" vertex="1" parent="WIyWlLk6GJQsqaUBKTNV-1">
          <mxGeometry x="-300" y="610" width="160" height="68" as="geometry" />
        </mxCell>
        <mxCell id="0SHu6hE-PkKvcGbJ-4ND-100" value="+ name&#xa;+state" style="text;strokeColor=none;fillColor=none;align=left;verticalAlign=top;spacingLeft=4;spacingRight=4;overflow=hidden;rotatable=0;points=[[0,0.5],[1,0.5]];portConstraint=eastwest;" vertex="1" parent="0SHu6hE-PkKvcGbJ-4ND-99">
          <mxGeometry y="26" width="160" height="34" as="geometry" />
        </mxCell>
        <mxCell id="0SHu6hE-PkKvcGbJ-4ND-101" value="" style="line;strokeWidth=1;fillColor=none;align=left;verticalAlign=middle;spacingTop=-1;spacingLeft=3;spacingRight=3;rotatable=0;labelPosition=right;points=[];portConstraint=eastwest;" vertex="1" parent="0SHu6hE-PkKvcGbJ-4ND-99">
          <mxGeometry y="60" width="160" height="8" as="geometry" />
        </mxCell>
        <mxCell id="0SHu6hE-PkKvcGbJ-4ND-103" value="TraficLightState" style="swimlane;fontStyle=1;align=center;verticalAlign=top;childLayout=stackLayout;horizontal=1;startSize=26;horizontalStack=0;resizeParent=1;resizeParentMax=0;resizeLast=0;collapsible=1;marginBottom=0;strokeWidth=3;" vertex="1" parent="WIyWlLk6GJQsqaUBKTNV-1">
          <mxGeometry x="-500" y="610" width="160" height="68" as="geometry" />
        </mxCell>
        <mxCell id="0SHu6hE-PkKvcGbJ-4ND-104" value="+ name&#xa;+state" style="text;strokeColor=none;fillColor=none;align=left;verticalAlign=top;spacingLeft=4;spacingRight=4;overflow=hidden;rotatable=0;points=[[0,0.5],[1,0.5]];portConstraint=eastwest;" vertex="1" parent="0SHu6hE-PkKvcGbJ-4ND-103">
          <mxGeometry y="26" width="160" height="34" as="geometry" />
        </mxCell>
        <mxCell id="0SHu6hE-PkKvcGbJ-4ND-105" value="" style="line;strokeWidth=1;fillColor=none;align=left;verticalAlign=middle;spacingTop=-1;spacingLeft=3;spacingRight=3;rotatable=0;labelPosition=right;points=[];portConstraint=eastwest;" vertex="1" parent="0SHu6hE-PkKvcGbJ-4ND-103">
          <mxGeometry y="60" width="160" height="8" as="geometry" />
        </mxCell>
        <mxCell id="0SHu6hE-PkKvcGbJ-4ND-107" value="" style="endArrow=diamondThin;endFill=0;endSize=24;html=1;entryX=0.493;entryY=1.029;entryDx=0;entryDy=0;entryPerimeter=0;exitX=0.5;exitY=0;exitDx=0;exitDy=0;" edge="1" parent="WIyWlLk6GJQsqaUBKTNV-1" source="0SHu6hE-PkKvcGbJ-4ND-91" target="0SHu6hE-PkKvcGbJ-4ND-81">
          <mxGeometry width="160" relative="1" as="geometry">
            <mxPoint x="-290" y="420" as="sourcePoint" />
            <mxPoint x="-130" y="420" as="targetPoint" />
          </mxGeometry>
        </mxCell>
        <mxCell id="0SHu6hE-PkKvcGbJ-4ND-109" value="" style="endArrow=block;endSize=16;endFill=0;html=1;exitX=0.5;exitY=0;exitDx=0;exitDy=0;entryX=0.5;entryY=1;entryDx=0;entryDy=0;" edge="1" parent="WIyWlLk6GJQsqaUBKTNV-1" source="0SHu6hE-PkKvcGbJ-4ND-103" target="0SHu6hE-PkKvcGbJ-4ND-91">
          <mxGeometry width="160" relative="1" as="geometry">
            <mxPoint x="-230" y="570" as="sourcePoint" />
            <mxPoint x="-70" y="570" as="targetPoint" />
            <Array as="points">
              <mxPoint x="-420" y="590" />
              <mxPoint x="-220" y="590" />
            </Array>
          </mxGeometry>
        </mxCell>
        <mxCell id="0SHu6hE-PkKvcGbJ-4ND-110" value="" style="endArrow=block;endSize=16;endFill=0;html=1;exitX=0.5;exitY=0;exitDx=0;exitDy=0;entryX=0.5;entryY=1;entryDx=0;entryDy=0;" edge="1" parent="WIyWlLk6GJQsqaUBKTNV-1" source="0SHu6hE-PkKvcGbJ-4ND-99" target="0SHu6hE-PkKvcGbJ-4ND-91">
          <mxGeometry width="160" relative="1" as="geometry">
            <mxPoint x="-410" y="620.0000000000001" as="sourcePoint" />
            <mxPoint x="-210" y="555.9999999999999" as="targetPoint" />
          </mxGeometry>
        </mxCell>
        <mxCell id="0SHu6hE-PkKvcGbJ-4ND-111" value="" style="endArrow=block;endSize=16;endFill=0;html=1;exitX=0.5;exitY=0;exitDx=0;exitDy=0;entryX=0.504;entryY=1.01;entryDx=0;entryDy=0;entryPerimeter=0;" edge="1" parent="WIyWlLk6GJQsqaUBKTNV-1" source="0SHu6hE-PkKvcGbJ-4ND-95" target="0SHu6hE-PkKvcGbJ-4ND-94">
          <mxGeometry width="160" relative="1" as="geometry">
            <mxPoint x="-400" y="630.0000000000001" as="sourcePoint" />
            <mxPoint x="-200" y="565.9999999999999" as="targetPoint" />
            <Array as="points">
              <mxPoint x="-20" y="590" />
              <mxPoint x="-219" y="590" />
            </Array>
          </mxGeometry>
        </mxCell>
        <mxCell id="0SHu6hE-PkKvcGbJ-4ND-112" value="State" style="shape=umlFrame;whiteSpace=wrap;html=1;strokeWidth=3;" vertex="1" parent="WIyWlLk6GJQsqaUBKTNV-1">
          <mxGeometry x="-512.5" y="40" width="585" height="700" as="geometry" />
        </mxCell>
      </root>
    </mxGraphModel>
  </diagram>
</mxfile>
